#!OML:ASF I:\Actors\actors\Patient Classification 2\Patient 1\Session 1\actor1.ASF
:FULLY-SPECIFIED
:DEGREES
333
root -0.820643 18.7593 5.17321 3.29284 -0.423597 -3.75574
lowerback 5.68235 2.90795 -4.50341
upperback 1.44527 3.51148 -4.61508
thorax -1.67012 1.76052 -2.48924
lowerneck -12.144 0.926754 -1.83557
upperneck 36.095 2.02351 0.227577
head 14.4021 0.659313 0.734915
rclavicle 5.00937e-014 -1.74931e-014
rhumerus 29.2422 57.0104 -11.186
rradius 116.602
rwrist -24.1311
rhand -3.79482 -46.3687
rfingers 7.12502
rthumb 21.951 -75.1433
lclavicle 5.00937e-014 -1.74931e-014
lhumerus 16.1116 -45.8466 42.827
lradius 82.2707
lwrist 41.6859
lhand 4.16269 -22.5432
lfingers 7.12502
lthumb 29.571 5.12088
rfemur 0 0 0
rtibia 0
rfoot 0 0
rtoes 0
lfemur -8.22887 -8.27417 -9.43485
ltibia 22.1741
lfoot -22.7654 16.8192
ltoes -54.4929
334
root -0.815385 18.7589 5.17552 3.28533 -0.422729 -3.74282
lowerback 5.64017 2.88694 -4.46289
upperback 1.49642 3.49286 -4.60578
thorax -1.59206 1.75033 -2.49629
lowerneck -12.151 0.94467 -1.85186
upperneck 36.0798 2.07331 0.174715
head 14.3969 0.671367 0.723736
rclavicle 3.97569e-015 4.13472e-014
rhumerus 28.4648 55.4771 -12.4475
rradius 116.32
rwrist -23.7086
rhand -4.21035 -46.1556
rfingers 7.12502
rthumb 21.552 -74.9764
lclavicle 3.97569e-015 4.13472e-014
lhumerus 16.1513 -45.7461 42.7917
lradius 82.2818
lwrist 41.6548
lhand 4.19472 -22.4254
lfingers 7.12502
lthumb 29.6016 5.23325
rfemur 0 0 0
rtibia 0
rfoot 0 0
rtoes 0
lfemur -8.21302 -8.2634 -9.47311
ltibia 22.1755
lfoot -22.8045 16.8079
ltoes -54.5042
335
root -0.809831 18.759 5.17471 3.28359 -0.439255 -3.69316
lowerback 5.66024 2.86699 -4.4329
upperback 1.51823 3.46763 -4.6239
thorax -1.57805 1.73755 -2.53021
lowerneck -12.0893 0.977167 -1.82133
upperneck 36.0288 2.13687 0.0994746
head 14.36 0.693463 0.696136
rclavicle 3.26007e-014 -3.65764e-014
rhumerus 28.0692 54.1325 -13.5496
rradius 115.466
rwrist -21.1233
rhand -5.33295 -45.1917
rfingers 7.12502
rthumb 20.4735 -74.1322
lclavicle 3.26007e-014 -3.65764e-014
lhumerus 16.1098 -45.6537 42.8274
lradius 82.291
lwrist 41.6127
lhand 4.04822 -22.4383
lfingers 7.12502
lthumb 29.4617 5.24507
rfemur 0 0 0
rtibia 0
rfoot 0 0
rtoes 0
lfemur -8.2159 -8.22214 -9.54959
ltibia 22.1738
lfoot -22.8235 16.8223
ltoes -54.5499
336
root -0.804533 18.7601 5.17273 3.29434 -0.47587 -3.62566
lowerback 5.70363 2.84687 -4.34515
upperback 1.52805 3.44202 -4.70035
thorax -1.5825 1.72486 -2.6584
lowerneck -12.0308 1.00792 -1.75007
upperneck 36.002 2.17713 0.05159
head 14.3354 0.714208 0.669148
rclavicle -1.70955e-014 2.38542e-014
rhumerus 28.0685 52.933 -14.4829
rradius 113.946
rwrist -16.2722
rhand -7.39257 -43.0203
rfingers 7.12502
rthumb 18.4932 -72.1613
lclavicle -1.70955e-014 2.38542e-014
lhumerus 15.9126 -45.5793 42.9135
lradius 82.3812
lwrist 41.4457
lhand 3.82575 -22.495
lfingers 7.12502
lthumb 29.2493 5.22559
rfemur 0 0 0
rtibia 0
rfoot 0 0
rtoes 0
lfemur -8.22735 -8.18613 -9.64297
ltibia 22.1691
lfoot -22.8156 16.8378
ltoes -54.6324
337
root -0.801506 18.7612 5.17127 3.32642 -0.545886 -3.58898
lowerback 5.74199 2.85857 -4.29339
upperback 1.51003 3.4559 -4.73245
thorax -1.61732 1.73209 -2.72429
lowerneck -11.9925 1.01676 -1.71378
upperneck 36.0525 2.18621 0.0366693
head 14.3507 0.720381 0.658028
rclavicle -3.18055e-015 -7.95139e-015
rhumerus 28.2997 52.0194 -15.2504
rradius 111.9
rwrist -10.0368
rhand -9.45828 -41.2434
rfingers 7.12502
rthumb 16.5053 -70.5614
lclavicle -3.18055e-015 -7.95139e-015
lhumerus 15.6855 -45.5194 43.0753
lradius 82.4975
lwrist 41.2738
lhand 3.67216 -22.4408
lfingers 7.12502
lthumb 29.1027 5.30523
rfemur 0 0 0
rtibia 0
rfoot 0 0
rtoes 0
lfemur -8.2464 -8.12808 -9.69277
ltibia 22.1719
lfoot -22.7917 16.8219
ltoes -54.5851
338
root -0.799771 18.7616 5.16998 3.35889 -0.647194 -3.60242
lowerback 5.80561 2.92343 -4.36712
upperback 1.46892 3.53148 -4.63623
thorax -1.70474 1.7704 -2.59451
lowerneck -11.9689 0.980007 -1.81406
upperneck 36.1495 2.16294 0.0372087
head 14.3899 0.696247 0.673239
rclavicle 2.38542e-015 2.06736e-014
rhumerus 28.6223 51.454 -15.8239
rradius 109.529
rwrist -3.5274
rhand -12.0059 -39.2363
rfingers 7.12502
rthumb 14.0513 -68.7413
lclavicle 2.38542e-015 2.06736e-014
lhumerus 15.8558 -45.4303 43.1949
lradius 82.3921
lwrist 41.3901
lhand 3.53608 -22.4225
lfingers 7.12502
lthumb 28.9727 5.34594
rfemur 0 0 0
rtibia 0
rfoot 0 0
rtoes 0
lfemur -8.27013 -7.97898 -9.68045
ltibia 22.1843
lfoot -22.7569 16.7942
ltoes -54.5378
339
root -0.796626 18.7614 5.16816 3.35458 -0.767755 -3.63142
lowerback 5.87222 3.01054 -4.41132
upperback 1.4629 3.64052 -4.53556
thorax -1.75612 1.82497 -2.47817
lowerneck -11.951 0.927428 -1.90114
upperneck 36.1794 2.12259 0.00462807
head 14.4002 0.663267 0.669473
rclavicle 5.92378e-014 -1.27222e-014
rhumerus 29.0704 51.2669 -16.2242
rradius 107.066
rwrist 2.34613
rhand -12.2853 -37.5268
rfingers 7.12502
rthumb 13.782 -67.0502
lclavicle 5.92378e-014 -1.27222e-014
lhumerus 16.2516 -45.3026 43.2676
lradius 82.1887
lwrist 41.6347
lhand 3.33635 -22.5261
lfingers 7.12502
lthumb 28.7819 5.27491
rfemur 0 0 0
rtibia 0
rfoot 0 0
rtoes 0
lfemur -8.2565 -7.83444 -9.66522
ltibia 22.1961
lfoot -22.7313 16.7986
ltoes -54.5862
340
root -0.793486 18.7617 5.16551 3.35692 -0.909086 -3.63115
lowerback 5.91423 3.09388 -4.3966
upperback 1.46977 3.74926 -4.52726
thorax -1.771 1.87909 -2.48836
lowerneck -11.9547 0.897626 -1.88308
upperneck 36.1538 2.07556 -0.00211793
head 14.39 0.64558 0.656271
rclavicle 3.4191e-014 -2.06736e-014
rhumerus 29.6157 51.5275 -16.5243
rradius 104.681
rwrist 7.56217
rhand -13.7622 -37.4345
rfingers 7.12502
rthumb 12.3583 -67.0492
lclavicle 3.4191e-014 -2.06736e-014
lhumerus 16.4061 -45.1878 43.3632
lradius 82.169
lwrist 41.6966
lhand 3.11147 -22.668
lfingers 7.12502
lthumb 28.5671 5.16933
rfemur 0 0 0
rtibia 0
rfoot 0 0
rtoes 0
lfemur -8.23926 -7.75177 -9.69414
ltibia 22.2057
lfoot -22.6981 16.91
ltoes -54.6882
341
root -0.791585 18.7627 5.16282 3.381 -1.0527 -3.58551
lowerback 6.00272 3.19196 -4.41581
upperback 1.45466 3.86951 -4.56192
thorax -1.83357 1.93948 -2.52922
lowerneck -12.0245 0.849787 -1.92762
upperneck 36.1495 1.98779 0.0852332
head 14.4029 0.614017 0.687277
rclavicle -1.55052e-014 -3.33958e-014
rhumerus 30.1776 52.0955 -16.6622
rradius 102.506
rwrist 12.0363
rhand -14.7145 -37.3089
rfingers 7.12502
rthumb 11.4401 -66.9768
lclavicle -1.55052e-014 -3.33958e-014
lhumerus 16.4462 -45.1044 43.5
lradius 82.2224
lwrist 41.6014
lhand 2.99798 -22.7836
lfingers 7.12502
lthumb 28.4586 5.07194
rfemur 0 0 0
rtibia 0
rfoot 0 0
rtoes 0
lfemur -8.24226 -7.67817 -9.77076
ltibia 22.2134
lfoot -22.6502 17.0993
ltoes -54.8656
342
root -0.790447 18.7634 5.16089 3.37949 -1.17406 -3.5242
lowerback 6.19531 3.31412 -4.45321
upperback 1.43058 4.0119 -4.58141
thorax -1.96544 2.01137 -2.55384
lowerneck -12.1518 0.747709 -2.10746
upperneck 36.1717 1.85314 0.193989
head 14.4409 0.546695 0.744727
rclavicle 5.48646e-014 -4.92986e-014
rhumerus 30.6238 52.8954 -16.6385
rradius 100.742
rwrist 14.9817
rhand -15.235 -36.7281
rfingers 7.12502
rthumb 10.9381 -66.4232
lclavicle 5.48646e-014 -4.92986e-014
lhumerus 16.5472 -45.0412 43.7458
lradius 82.2271
lwrist 41.5759
lhand 2.9245 -22.8409
lfingers 7.12502
lthumb 28.3884 5.02643
rfemur 0 0 0
rtibia 0
rfoot 0 0
rtoes 0
lfemur -8.21338 -7.64162 -9.86021
ltibia 22.2158
lfoot -22.6563 17.2001
ltoes -54.9216
343
root -0.790037 18.764 5.16001 3.36403 -1.26282 -3.492
lowerback 6.4338 3.4383 -4.48224
upperback 1.39709 4.15349 -4.57951
thorax -2.13367 2.08307 -2.56546
lowerneck -12.2352 0.645539 -2.23577
upperneck 36.1208 1.73769 0.202693
head 14.437 0.482655 0.753897
rclavicle 2.50469e-014 -3.81667e-014
rhumerus 30.8009 53.9595 -16.5919
rradius 99.5051
rwrist 16.1392
rhand -15.6293 -36.3023
rfingers 7.12502
rthumb 10.5577 -66.0171
lclavicle 2.50469e-014 -3.81667e-014
lhumerus 16.6169 -44.9925 44.0607
lradius 82.2608
lwrist 41.6966
lhand 2.82243 -22.8653
lfingers 7.12502
lthumb 28.2909 5.01819
rfemur 0 0 0
rtibia 0
rfoot 0 0
rtoes 0
lfemur -8.17188 -7.62883 -9.91001
ltibia 22.2237
lfoot -22.7346 17.214
ltoes -54.8526
344
root -0.789708 18.7642 5.16006 3.37026 -1.27965 -3.49623
lowerback 6.63042 3.54196 -4.53466
upperback 1.35502 4.26933 -4.55764
thorax -2.29108 2.14202 -2.53984
lowerneck -12.2131 0.575504 -2.26635
upperneck 36.0041 1.65301 0.168963
head 14.3794 0.440794 0.731584
rclavicle -9.93923e-015 3.18055e-015
rhumerus 30.7953 55.2029 -16.4705
rradius 98.7905
rwrist 16.3815
rhand -15.6856 -36.2721
rfingers 7.12502
rthumb 10.5034 -65.9897
lclavicle -9.93923e-015 3.18055e-015
lhumerus 16.6359 -44.9638 44.3648
lradius 82.3179
lwrist 41.8021
lhand 2.77307 -22.8986
lfingers 7.12502
lthumb 28.2437 4.99269
rfemur 0 0 0
rtibia 0
rfoot 0 0
rtoes 0
lfemur -8.18419 -7.58849 -9.90686
ltibia 22.2432
lfoot -22.7424 17.2181
ltoes -54.8655
